<?xml version="1.0" encoding="UTF-8"?>
<svg width="16px" height="17px" viewBox="0 0 16 17" version="1.1" xmlns="http://www.w3.org/2000/svg" xmlns:xlink="http://www.w3.org/1999/xlink">
    <!-- Generator: Sketch 52.6 (67491) - http://www.bohemiancoding.com/sketch -->
    <title>分组</title>
    <desc>Created with Sketch.</desc>
    <g id="Page-1" stroke="none" stroke-width="1" fill="none" fill-rule="evenodd">
        <g id="Desktop-HD" transform="translate(-360.000000, -203.000000)" fill="#54698D">
            <g id="分组" transform="translate(356.000000, 199.000000)">
                <g id="duoyuyan">
                    <g transform="translate(4.000000, 4.000000)" fill-rule="nonzero">
                        <path d="M7.86147186,16.5422933 C3.528489,16.5422933 0.00335792208,13.0171623 0.00335792208,8.68417939 C0.00273731602,7.50520519 0.273853506,6.32365991 0.788158615,5.26242355 L0.766969351,5.23990442 L0.836743203,5.16481108 C1.50059627,3.83822491 2.5264803,2.72670453 3.79570424,1.95884883 L3.88170251,1.90680658 L4.2729503,2.55250286 L4.18704069,2.60454511 C3.46706593,3.04007738 2.83052647,3.60050951 2.30731359,4.25952416 C2.50856727,4.19826147 2.70334892,4.16723117 2.88953074,4.16723117 C3.51164398,4.16723117 4.00937004,4.51432727 4.29112519,5.14441974 C5.22407342,7.23036537 4.87555879,9.02737455 3.35897489,9.95136831 C2.91364571,10.2223072 2.77675775,10.4391647 2.565929,10.9962916 C2.36077437,11.5391446 2.14276433,11.8800346 1.61977074,12.0720679 C2.05663548,12.8777273 2.64590394,13.5908114 3.35480797,14.1716668 C3.40596364,13.753733 3.562711,13.3598255 3.79721143,13.0691158 C4.11283394,12.6782227 4.5480561,12.4716495 5.05580052,12.4716495 C5.4652232,12.4716495 5.91383273,12.6028634 6.38930563,12.8616561 C7.50089974,13.467013 8.25245368,13.5942372 8.6871439,13.5942372 L8.68732121,13.5942372 C9.33523394,13.5941486 9.706711,13.317181 9.706711,12.8344381 C9.706711,11.2592513 10.8134289,10.4266639 12.9074424,10.4266639 C13.3267948,10.4266639 13.7922494,10.4594674 14.2907733,10.5242764 C14.3415744,10.5308371 14.458071,10.5733929 14.4417579,10.825093 C14.4301437,11.0040048 14.3511494,11.2701562 14.1808374,11.2701562 L14.174454,11.2701562 L14.1613326,11.268915 C13.7099747,11.2112873 13.2927501,11.1821188 12.9211844,11.1821188 C11.2892565,11.1821188 10.4617226,11.7380932 10.4617226,12.8346154 C10.4617226,13.7722625 9.80237299,14.3321378 8.69796017,14.3321378 C7.9205181,14.3321378 6.99732225,14.0531311 6.02793558,13.5252613 C5.66124606,13.3255148 5.33666909,13.2242674 5.06315913,13.2242674 C4.78415238,13.2242674 4.55585801,13.3317209 4.38465939,13.5437022 C4.1528187,13.8306881 4.04297143,14.3066043 4.1112381,14.7152291 C5.2333396,15.4163052 6.52993969,15.7877893 7.85304935,15.7872817 C11.631299,15.7872817 14.7464755,12.8417081 14.9537579,9.08136727 C14.9603186,8.96345212 15.0875429,8.89589472 15.3027158,8.89589472 C15.3638899,8.89589472 15.5705517,8.90343065 15.6625787,9.00059983 C15.6943183,9.03411255 15.710454,9.07631377 15.7081489,9.11957887 C15.4805638,13.2817177 12.0339837,16.5422933 7.86147186,16.5422933 Z M1.44573506,5.6349645 C0.989766926,6.59406684 0.75854684,7.61992866 0.75854684,8.68417939 C0.756497936,9.61082812 0.93732721,10.5287732 1.29067221,11.3854116 C1.58856312,11.2956897 1.69442078,11.1639439 1.85897004,10.7288104 C2.11359584,10.0559848 2.33373368,9.69089108 2.96542199,9.30593801 C4.12630996,8.59889039 4.36400208,7.15837506 3.60109991,5.45241766 C3.44142684,5.09521455 3.19274113,4.91408623 2.86204675,4.91408623 C2.47735965,4.91408623 1.98787879,5.1633039 1.44573506,5.6349645 Z" id="形状"></path>
                        <path d="M4.99037091,0.932987013 C4.99037091,0.419302511 5.40830476,0.00128 5.92207792,0.00128 L15.0649351,0.00128 C15.5787082,0.00128 15.9966421,0.419213853 15.9966421,0.932987013 L15.9966421,7.58233766 C15.9966421,8.09602216 15.5787082,8.51404468 15.0649351,8.51404468 L6.83596468,8.51404468 L4.99037091,9.24680312 L4.99045957,0.932987013 L4.99037091,0.932987013 Z M5.92207792,0.756468918 C5.82463018,0.756566659 5.74565757,0.835539275 5.74555983,0.932987013 L5.74555983,8.13441108 L6.69162944,7.75894442 L15.0649351,7.75894442 C15.1623828,7.75884667 15.2413554,7.67987406 15.2414532,7.58242632 L15.2414532,0.933075671 C15.2413067,0.835648154 15.1623626,0.756704047 15.0649351,0.756557576 L5.92207792,0.756557576 L5.92207792,0.756468918 Z" id="形状"></path>
                        <path d="M12.3423363,6.08809558 C12.0155429,6.08809558 11.7522286,6.00342719 11.5594861,5.8363955 C11.3623106,5.66546286 11.2623931,5.43778909 11.2623931,5.15975758 C11.2623931,4.89307429 11.3584984,4.67009939 11.5480492,4.49703896 C11.7345856,4.32672693 12.0401011,4.21794355 12.4817953,4.16457143 L12.9336852,4.09728 C13.0621506,4.07697732 13.1740371,4.05241905 13.2670393,4.0242258 C13.2654435,3.89904069 13.2597694,3.83449766 13.2548932,3.80160554 C13.2483325,3.75638996 13.2270545,3.70736208 13.19168,3.6555858 C13.1586992,3.6074445 13.1024014,3.56692779 13.024205,3.53509957 C12.9390047,3.50052294 12.819671,3.48296866 12.6697503,3.48296866 C12.4808201,3.48296866 12.3318746,3.51683602 12.2274355,3.58350684 C12.1297344,3.64574476 12.0604925,3.76995463 12.0213943,3.95259013 L12.0019782,4.04319861 L11.3294185,3.95516121 L11.3478594,3.85152 C11.4049552,3.53110996 11.5546985,3.28605922 11.7931886,3.1231058 C12.0259158,2.96423065 12.3454393,2.88372918 12.7428932,2.88372918 C13.1101146,2.88372918 13.3758227,2.9387858 13.5554438,3.05209074 C13.7386999,3.1678781 13.853512,3.31239065 13.8966885,3.48163879 C13.9355207,3.63359861 13.9552028,3.82953281 13.9552028,4.06385593 L13.9552028,6.02036087 L13.2994881,6.02036087 L13.2994881,5.77158649 C13.0015086,5.98179463 12.6803893,6.08809558 12.3423363,6.08809558 Z M13.2674826,4.61654996 C13.0339574,4.68419602 12.7591176,4.73951861 12.4480166,4.78136519 C12.0315013,4.83757437 11.9832713,5.0178161 11.9832713,5.14858667 C11.9832713,5.25063203 12.0205077,5.33246338 12.0971969,5.39860225 C12.1771664,5.46766684 12.2989825,5.50277541 12.4590102,5.50277541 C12.6780842,5.50277541 12.8652412,5.43947359 13.031475,5.30914632 C13.1881337,5.18644364 13.2674826,4.96674909 13.2674826,4.6563574 L13.2674826,4.61654996 Z M10.218977,6.02053818 L9.7537884,4.81399134 L8.23729316,4.81399134 L7.79896797,6.02053818 L7.02755463,6.02053818 L8.628009,1.85316848 L9.33009177,1.85316848 L11.0301977,6.02053818 L10.218977,6.02053818 Z M9.51778078,4.19622234 C9.24524606,3.47392554 9.07200831,3.00270823 8.98157714,2.73708883 L8.45849489,4.19622234 L9.51778078,4.19622234 Z" id="形状"></path>
                    </g>
                </g>
            </g>
        </g>
    </g>
</svg>