<?xml version="1.0" encoding="UTF-8"?>
<svg width="16px" height="16px" viewBox="0 0 16 16" version="1.1" xmlns="http://www.w3.org/2000/svg" xmlns:xlink="http://www.w3.org/1999/xlink">
    <!-- Generator: Sketch 52.6 (67491) - http://www.bohemiancoding.com/sketch -->
    <title>分组 copy 2</title>
    <desc>Created with Sketch.</desc>
    <g id="Page-1" stroke="none" stroke-width="1" fill="none" fill-rule="evenodd">
        <g id="Desktop-HD" transform="translate(-781.000000, -162.000000)">
            <g id="分组-copy-2" transform="translate(777.000000, 158.000000)">
                <g id="分组">
                    <g id="多语言" transform="translate(3.000000, 3.000000)">
                        <rect id="矩形" fill="#000000" opacity="0" x="0" y="0" width="18" height="18"></rect>
                        <path d="M15.0326676,14.2560323 C16.3050088,12.7999784 17,10.9551667 17,9.00338332 C17,6.86743416 16.1680938,4.85928622 14.6575176,3.34892135 C13.1701762,1.86176972 11.2000381,1.03311532 9.10057704,1.00797682 C9.06608239,0.997231986 8.91616542,0.997360335 8.8814507,1.00825186 C6.79040703,1.03901949 4.82907134,1.86708713 3.3470298,3.34892135 C1.86190741,4.83385432 1.03337548,6.80001304 1.00586777,8.89565989 C0.998183956,8.92521737 0.998037238,9.04979148 1.00548267,9.07890889 C1.02488477,11.1866024 1.85429695,13.1653212 3.3470298,14.6578453 C4.85760598,16.1682102 6.86601654,17 9.00228287,17 C11.1385309,17 13.1469597,16.1682102 14.6575359,14.6578453 C14.7675667,14.5478299 14.8735631,14.4348624 14.9763318,14.3196946 C14.9854277,14.3115718 14.9942852,14.3030639 15.0027025,14.2938776 C15.0137607,14.281831 15.0235167,14.2690692 15.0326676,14.2560323 Z M1.74692522,9.35486422 L5.10710083,9.35486422 C5.13079413,10.5317174 5.27293558,11.6352269 5.51041872,12.6180129 C4.40488426,12.9170165 3.70365795,13.3055726 3.34062967,13.5480832 C2.40753181,12.3883007 1.82271809,10.9372892 1.74692522,9.35486422 Z M3.33173551,4.46970332 C3.69177463,4.71261735 4.39340437,5.10511565 5.50625588,5.40611782 C5.27332068,6.37599532 5.13301307,7.46274586 5.10763263,8.6212448 L1.74833727,8.6212448 C1.82988844,7.05572552 2.40982411,5.62013446 3.33173551,4.46970332 Z M16.2562284,8.62122645 L12.8969148,8.62122645 C12.8715527,7.46314926 12.7313184,6.37676543 12.4985482,5.40714463 C13.6088324,5.10803106 14.3127727,4.71828314 14.6771214,4.47502074 C15.5965388,5.62457175 16.1747873,7.05814587 16.2562284,8.62122645 Z M12.163046,8.62122645 L9.35825085,8.62122645 L9.35825085,5.82527653 C10.2938794,5.80565711 11.0984246,5.709632 11.7824495,5.57381798 C12.0075358,6.50801382 12.1381057,7.5424887 12.163046,8.62122645 Z M9.35825085,5.0916021 L9.35825085,1.79110316 C10.0184723,1.97743259 10.6625193,2.67278499 11.1669372,3.76239592 C11.3248314,4.10348036 11.4652307,4.47271041 11.5874382,4.86475032 C10.9597308,4.98609732 10.2201405,5.07273446 9.35825085,5.0916021 Z M8.62451044,1.79746573 L8.62451044,5.09094201 C7.77318379,5.07075419 7.04069042,4.98340195 6.41809947,4.86154155 C6.54008695,4.47069347 6.68015616,4.10252691 6.83761024,3.76235925 C7.33650823,2.68475833 7.97193611,1.99281642 8.62451044,1.79746573 Z M8.62451044,5.8249098 L8.62451044,8.62122645 L5.8415014,8.62122645 C5.86644171,7.54230535 5.99704827,6.50766543 6.22220798,5.57334123 C6.90025444,5.70836681 7.69735424,5.80424524 8.62451044,5.8249098 Z M5.84085955,9.35486422 L8.62451044,9.35486422 L8.62451044,12.1979191 C7.69962821,12.2193171 6.90375708,12.3155256 6.22631578,12.4506245 C5.99647979,11.5029884 5.86416776,10.4514611 5.84085955,9.35486422 Z M8.62451044,12.9318685 L8.62451044,16.2093009 C7.97191777,16.0139502 7.33650823,15.3220083 6.83762857,14.244389 C6.6820817,13.9083836 6.54355292,13.5449661 6.42262907,13.1594171 C7.04340451,13.0388952 7.77415575,12.9524414 8.62451044,12.9318685 Z M9.35825085,16.2156635 L9.35825085,12.9307317 C10.2167295,12.9491043 10.9550545,13.0357781 11.5825235,13.1575101 C11.4614529,13.5437559 11.3227224,13.9078152 11.1669372,14.2443707 C10.6625193,15.3339816 10.0184723,16.029334 9.35825085,16.2156635 Z M9.35825085,12.1970023 L9.35825085,9.35486422 L12.1636878,9.35486422 C12.1404163,10.4496092 12.0084894,11.4994129 11.7793686,12.4458205 C11.096334,12.3108499 10.2928525,12.2158333 9.35825085,12.1970023 Z M12.8974649,9.35486422 L16.2576405,9.35486422 C16.1819943,10.9341537 15.5993629,12.38258 14.6694926,13.5412072 C14.3026683,13.2962946 13.6007818,12.9087103 12.4956324,12.6118154 C12.7321986,11.630588 12.8738083,10.5292604 12.8974649,9.35486422 Z M14.1852471,3.92023136 C13.8567684,4.12755539 13.2478213,4.44623337 12.3061044,4.69956217 C11.9603142,3.56970392 11.4797731,2.63888189 10.9071728,1.99431994 C12.1688226,2.33747635 13.2948411,3.01275093 14.1852471,3.92023136 Z M7.09737463,1.99431996 C6.52559958,2.63794677 6.04559021,3.56699023 5.69992845,4.69464817 C4.76081558,4.43946744 4.15210684,4.11948761 3.82573716,3.91363044 C4.71513443,3.0094688 5.83878732,2.33665124 7.09737463,1.99431996 Z M3.83417284,14.1017724 C4.16184456,13.8950718 4.76782085,13.5780074 5.70388956,13.3252653 C6.04925791,14.4470374 6.52781853,15.3712952 7.09737463,16.0124467 C5.84276675,15.6711972 4.72223143,15.0016068 3.83417284,14.1017724 Z M10.9071728,16.0124467 C11.4770773,15.3709102 11.955858,14.4459189 12.3012814,13.32323 C13.2328938,13.5745052 13.8419693,13.8900111 14.1746108,14.0974451 C13.2858736,14.9994431 12.1637795,15.6706655 10.9071728,16.0124467 Z" id="形状" fill="#2196F3" fill-rule="nonzero"></path>
                    </g>
                </g>
            </g>
        </g>
    </g>
</svg>